<?xml version="1.0" encoding="utf-8"?>
<!-- Generator: Adobe Illustrator 19.0.0, SVG Export Plug-In . SVG Version: 6.00 Build 0)  -->
<svg version="1.1" id="Camada_1" xmlns="http://www.w3.org/2000/svg" xmlns:xlink="http://www.w3.org/1999/xlink" x="0px" y="0px"
	 viewBox="0 0 32.5 48.4" style="enable-background:new 0 0 32.5 48.4;" xml:space="preserve">
<style type="text/css">
	.st0{fill:#FFFFFF;}
</style>
<path id="XMLID_80_" class="st0" d="M23.1,27.1C23.1,27.1,23.1,27.1,23.1,27.1c5.2,0,9.5-4.3,9.5-9.5c0-1.9-0.6-3.7-1.6-5.2
	c0-0.1-0.1-0.1-0.1-0.2c-0.1-0.1-0.1-0.1-0.2-0.2c-0.1-0.2-0.3-0.4-0.4-0.5C27.9,8.7,24.4,7,19.8,6.6V2.2C19.8,1,18.5,0,17,0
	c-1.5,0-2.8,1-2.8,2.2v4.6C5.7,8.2,0,14.9,0,24.3c0,9.3,5.5,15.9,14.3,17.4v4.6c0,1.2,1.2,2.2,2.8,2.2c1.5,0,2.8-1,2.8-2.2v-4.4
	c3.7-0.3,7-1.5,9.7-3.4c0.3-0.1,0.5-0.3,0.7-0.5c0.5-0.5,0.9-1.3,0.9-2.1c0-0.6-0.2-1.2-0.5-1.7c-0.2-0.3-0.4-0.5-0.6-0.7
	c0,0,0,0-0.1,0l0,0c-0.5-0.4-1.2-0.7-1.9-0.7c-0.6,0-1.1,0.2-1.6,0.4c-0.1,0.1-0.2,0.2-0.3,0.3c-2.2,1.5-4.8,2.3-7.7,2.3
	c-5.5,0-9.6-3.3-10.8-8.7L23.1,27.1C23,27.1,23,27.1,23.1,27.1z M22.6,21.6h-8.2H7.5c0.7-4.5,3.4-7.7,7.3-8.7
	c0.9-0.2,1.8-0.3,2.8-0.3c3.2,0,5.8,1.1,7.5,3.1c0.1,0.1,0.2,0.3,0.3,0.4c0.4,0.6,0.6,1.2,0.6,1.9c0,1.5-0.9,2.7-2.2,3.3
	C23.6,21.5,23.1,21.6,22.6,21.6z"/>
</svg>
