<?xml version="1.0" encoding="utf-8"?>
<!-- Generator: Adobe Illustrator 19.0.0, SVG Export Plug-In . SVG Version: 6.00 Build 0)  -->
<svg version="1.1" id="Camada_1" xmlns="http://www.w3.org/2000/svg" xmlns:xlink="http://www.w3.org/1999/xlink" x="0px" y="0px"
	 viewBox="0 0 355.9 126.1" style="enable-background:new 0 0 355.9 126.1;" xml:space="preserve">
<style type="text/css">
	.st0{fill:url(#XMLID_91_);}
	.st1{fill:url(#XMLID_92_);}
	.st2{fill:#262424;}
</style>
<g id="XMLID_39_">
	<g id="XMLID_5_">
		<g id="XMLID_58_">
			
				<linearGradient id="XMLID_91_" gradientUnits="userSpaceOnUse" x1="0" y1="-16279.0918" x2="159.9727" y2="-16279.0918" gradientTransform="matrix(1 0 0 -1 0 -16255.1484)">
				<stop  offset="0" style="stop-color:#76B5C0"/>
				<stop  offset="1" style="stop-color:#476B79"/>
			</linearGradient>
			<polygon id="XMLID_60_" class="st0" points="80,0 0,20.6 28.1,30.2 80,47.9 131.9,30.2 160,20.6 			"/>
			
				<linearGradient id="XMLID_92_" gradientUnits="userSpaceOnUse" x1="6.7834" y1="-16335.418" x2="131.8607" y2="-16335.418" gradientTransform="matrix(1 0 0 -1 0 -16255.1484)">
				<stop  offset="0" style="stop-color:#76B5C0"/>
				<stop  offset="1" style="stop-color:#476B79"/>
			</linearGradient>
			<path id="XMLID_59_" class="st1" d="M80,52.1l-1.3-0.4L28.1,34.4v65.7c-1.8,0.2-3.6,0.5-5.4,1c-10.5,3-17.5,10.7-15.6,17.3
				s11.9,9.6,22.4,6.6c9.1-2.6,15.5-8.7,15.9-14.6l0,0v-0.2c0-0.1,0-0.2,0-0.3V56.6L80,68.4l34.6-11.8v43.4c-1.8,0.2-3.6,0.5-5.4,1
				c-10.5,3-17.5,10.7-15.6,17.3s11.9,9.6,22.4,6.6c6.7-1.9,12-5.8,14.5-10c1.7-2,1.5-7.2,1.5-7.2V34.4L81.3,51.6L80,52.1z"/>
		</g>
	</g>
	<g id="XMLID_2_">
		<path id="XMLID_22_" class="st2" d="M184.8,42.8h-9.6V73h-5.5V42.8H160v-4.9h24.8V42.8z"/>
		<path id="XMLID_24_" class="st2" d="M193.8,70.2c-1.4-1-2.4-2.3-3.1-3.8c-0.8-1.6-1.2-3.4-1.2-5.3V37.9h5.5v23.2
			c0,2.1,0.8,3.7,2.2,4.8c1.3,1,3.3,1.7,5.3,1.7c2,0,4-0.6,5.3-1.7c1.4-1.1,2.1-2.7,2.1-4.8V37.9h5.5v23.2c0,1.9-0.4,3.7-1.2,5.3
			c-0.8,1.5-1.8,2.7-3.1,3.8c-2.3,1.8-5.4,2.8-8.7,2.8S196.2,72,193.8,70.2z"/>
		<path id="XMLID_26_" class="st2" d="M245.1,42.8h-9.6V73h-5.5V42.8h-9.6v-4.9h24.8V42.8z"/>
		<path id="XMLID_28_" class="st2" d="M256.8,71.6c-2.1-0.9-4-2.2-5.6-3.8s-2.9-3.5-3.8-5.6c-0.9-2.1-1.4-4.4-1.4-6.8
			s0.5-4.7,1.4-6.9c0.9-2.1,2.2-3.9,3.8-5.6c1.6-1.6,3.5-2.8,5.6-3.7s4.4-1.4,6.8-1.4s4.7,0.5,6.9,1.4c2.1,0.9,3.9,2.1,5.6,3.7
			c1.6,1.7,2.8,3.5,3.7,5.6c0.9,2.2,1.4,4.5,1.4,6.9s-0.5,4.7-1.4,6.8c-0.9,2.1-2.1,4-3.7,5.6c-1.7,1.6-3.5,2.9-5.6,3.8
			c-2.2,0.9-4.5,1.4-6.9,1.4S258.9,72.5,256.8,71.6z M255.1,46.9c-2.3,2.3-3.5,5.3-3.5,8.5c0,3.2,1.3,6.2,3.5,8.5s5.3,3.5,8.5,3.5
			s6.2-1.3,8.5-3.5s3.5-5.3,3.5-8.5c0-3.2-1.3-6.2-3.5-8.5s-5.3-3.5-8.5-3.5S257.4,44.7,255.1,46.9z"/>
		<path id="XMLID_31_" class="st2" d="M311.9,73h-6.2l-8.8-11.9h-4V73h-5.5V37.9h4.6h5.8c4.6,0,7.3,1.9,8.8,3.5
			c1.8,2,2.8,4.9,2.8,8.1c0,3.2-1,6.1-2.8,8.1c-0.9,0.9-2.2,2-4.1,2.7L311.9,73z M297.8,56.2c2.3,0,4-0.7,5.1-1.9
			c1.3-1.4,1.6-3.4,1.6-4.8c0-1.4-0.2-3.4-1.6-4.8c-1.1-1.2-2.8-1.8-5.1-1.8h-4.9v13.3H297.8z"/>
	</g>
	<g id="XMLID_3_">
		<path id="XMLID_4_" class="st2" d="M195,81.5v33.1c0,0.4-0.4,0.8-0.8,0.8h-6.6c-0.2,0-0.4-0.1-0.6-0.2c-0.1-0.1-0.2-0.3-0.2-0.6
			l0.1-18.8l-5.5,16.4c-0.1,0.3-0.4,0.6-0.8,0.6h-6.9c-0.3,0-0.7-0.2-0.8-0.6l-5.3-16.3l0.1,18.6c0,0,0,0.1,0,0.1
			c0,0.4-0.3,0.8-0.8,0.8h-6.3c-0.4,0-0.8-0.4-0.8-0.8V81.5c0-0.4,0.3-0.8,0.8-0.8h9.8c0.3,0,0.6,0.2,0.8,0.6l6.2,19.1l6-19.1
			c0.1-0.3,0.4-0.6,0.8-0.6h10C194.6,80.7,195,81.1,195,81.5z"/>
		<path id="XMLID_7_" class="st2" d="M227.1,81.4v20.2c0,2-0.3,3.9-1,5.6c-0.7,1.7-1.6,3.1-2.8,4.4c-1.2,1.2-2.7,2.2-4.4,2.8
			c-1.7,0.7-3.6,1-5.7,1c-2.1,0-4-0.3-5.7-1c-1.7-0.7-3.2-1.7-4.4-2.8c-1.2-1.2-2.1-2.7-2.7-4.4c-0.7-1.7-1-3.5-1-5.6V81.4
			c0-0.4,0.3-0.7,0.7-0.7h7.4c0.4,0,0.7,0.3,0.7,0.7V101c0,0.8,0.1,1.6,0.3,2.4c0.2,0.7,0.5,1.3,0.9,1.9c0.4,0.6,0.9,1,1.6,1.3
			c0.7,0.3,1.4,0.5,2.4,0.5c0.9,0,1.8-0.2,2.4-0.5c0.7-0.3,1.2-0.8,1.6-1.3c0.4-0.6,0.7-1.2,0.9-1.9c0.2-0.8,0.3-1.5,0.3-2.4V81.4
			c0-0.4,0.3-0.7,0.7-0.7h7.5C226.8,80.7,227.1,81,227.1,81.4z"/>
		<path id="XMLID_10_" class="st2" d="M253.4,99.2c0.7,1.2,1,2.7,1,4.5c0,2-0.3,3.7-1,5.2c-0.7,1.5-1.7,2.7-2.9,3.6
			c-1.2,0.9-2.6,1.7-4.1,2.1s-3.1,0.7-4.6,0.7c-2.3,0-4.5-0.4-6.7-1.2c-2.2-0.9-4-2.1-5.4-3.7c-0.4-0.4-0.4-1,0-1.4l4.8-5.1
			c0.2-0.2,0.5-0.3,0.8-0.3s0.6,0.1,0.8,0.4c0.7,0.9,1.6,1.6,2.6,2.1c1,0.6,2.1,0.9,3.2,0.9c0.5,0,0.9-0.1,1.4-0.2
			c0.4-0.1,0.8-0.2,1-0.4c0.2-0.2,0.4-0.4,0.6-0.7c0.2-0.3,0.2-0.7,0.2-1.1s0-0.7-0.2-0.9c-0.2-0.3-0.5-0.6-0.9-0.9
			c-0.5-0.3-1.1-0.6-1.8-0.9c-0.8-0.3-1.7-0.6-2.6-0.9c-1-0.3-2-0.8-3-1.2c-1-0.5-2-1.1-2.8-1.9c-0.8-0.8-1.5-1.8-2-2.9
			c-0.5-1.1-0.8-2.5-0.8-4.1c0-1.9,0.4-3.6,1.2-5.1c0.8-1.4,1.8-2.6,3-3.5s2.6-1.5,4.1-1.9c1.5-0.4,3-0.6,4.5-0.6
			c1.8,0,3.7,0.4,5.6,1.1c1.9,0.7,3.6,1.8,5.1,3.1c0.2,0.2,0.3,0.5,0.3,0.7c0,0.3-0.1,0.5-0.3,0.8l-4.7,5.2
			c-0.2,0.2-0.5,0.4-0.8,0.3c-0.3,0-0.6-0.1-0.7-0.4c-0.6-0.7-1.3-1.3-2.1-1.7c-0.9-0.4-1.8-0.7-2.6-0.7c-0.4,0-0.9,0-1.3,0.1
			c-0.4,0-0.7,0.2-1,0.4c-0.3,0.2-0.5,0.4-0.7,0.7c-0.1,0.2-0.2,0.5-0.2,0.9c0,0.4,0,0.6,0.2,0.9c0.1,0.2,0.3,0.4,0.6,0.6
			c0.4,0.2,0.8,0.4,1.3,0.6c0.6,0.2,1.2,0.5,1.9,0.7c1,0.3,2.1,0.8,3.3,1.2c1.2,0.5,2.4,1.1,3.4,1.9C251.9,97.1,252.8,98,253.4,99.2
			z"/>
		<path id="XMLID_12_" class="st2" d="M267.5,81.3v33.5c0,0.3-0.2,0.6-0.6,0.6h-8.1c-0.3,0-0.6-0.2-0.6-0.6V81.3
			c0-0.3,0.2-0.6,0.6-0.6h8.1C267.3,80.7,267.5,81,267.5,81.3z"/>
		<path id="XMLID_14_" class="st2" d="M298.8,110.5c-1.3,1.4-2.8,2.6-4.6,3.4c-2,1-4.4,1.5-7,1.5c-2.4,0-4.6-0.4-6.6-1.2
			c-2-0.9-3.8-2-5.3-3.6c-1.5-1.5-2.7-3.4-3.5-5.5c-0.9-2.1-1.3-4.5-1.3-7c0-2.6,0.4-5,1.3-7.1c0.9-2.1,2-4,3.6-5.5
			c1.5-1.5,3.3-2.6,5.3-3.5c2-0.8,4.3-1.2,6.6-1.2c2.2,0,4.4,0.4,6.5,1.2c1.8,0.7,3.5,1.8,4.7,3.1c0.1,0.1,0.1,0.3,0.1,0.5
			c0,0.2,0,0.3-0.1,0.5l-4.9,5.2c-0.1,0.1-0.2,0.2-0.4,0.2c-0.2,0-0.3-0.1-0.5-0.2c-0.5-0.6-1.2-1.1-2-1.5c-1-0.4-2.1-0.7-3.2-0.7
			c-1.1,0-2.2,0.2-3.2,0.7c-1,0.4-1.8,1.1-2.5,1.8c-0.7,0.8-1.3,1.8-1.7,2.9c-0.4,1.1-0.6,2.3-0.6,3.6c0,1.3,0.2,2.6,0.6,3.7
			c0.4,1.1,0.9,2.1,1.6,2.8c0.7,0.8,1.5,1.4,2.5,1.8c0.9,0.4,2,0.7,3.2,0.7c1.3,0,2.5-0.3,3.5-0.8c0.9-0.5,1.5-1,2.1-1.8
			c0.1-0.1,0.3-0.2,0.4-0.2c0,0,0,0,0,0c0.1,0,0.3,0,0.4,0.2l4.9,5.1C298.9,109.9,298.9,110.3,298.8,110.5z"/>
		<path id="XMLID_16_" class="st2" d="M333.8,114.8c0,0.3-0.2,0.6-0.6,0.6h-8.4c-0.2,0-0.4-0.1-0.5-0.4l-2.3-6.2h-11.3l-2.1,6.2
			c-0.1,0.2-0.3,0.4-0.5,0.4h-8.2c-0.2,0-0.4-0.1-0.5-0.2c-0.1-0.2-0.1-0.4,0-0.6l13.1-33.5c0.1-0.2,0.3-0.4,0.5-0.4h7.3
			c0.2,0,0.4,0.1,0.5,0.4l12.9,33.4C333.8,114.7,333.8,114.7,333.8,114.8z M316.5,92l-3.2,9.2h6.3L316.5,92z"/>
		<path id="XMLID_20_" class="st2" d="M355.9,107.8v7c0,0.3-0.2,0.6-0.6,0.6h-20.8c-0.3,0-0.6-0.2-0.6-0.6V81.3
			c0-0.3,0.2-0.6,0.6-0.6h8c0.3,0,0.6,0.3,0.6,0.6v25.9h12.2C355.7,107.2,355.9,107.5,355.9,107.8z"/>
	</g>
</g>
</svg>
